<svg height="512pt" viewBox="-112 0 512 512" width="512pt" xmlns="http://www.w3.org/2000/svg"><path d="m241.078125 76.835938-13.355469-76.835938-163.15625 94.484375.21875 1.265625-10.34375 50.308594-54.441406 31.527344v262.261718l124.976562 72.152344 163.15625-94.484375v-262.257813zm0 0" fill="#7dcbff"/><path d="m124.976562 512v-262.257812l-47.054687-78.421876-12.875-76.835937-12.753906 62.039063-52.292969 21.0625v262.261718zm0 0" fill="#33aeff"/><path d="m288.132812 155.257812-47.054687-78.421874-163.15625 94.484374 47.054687 78.421876zm0 0" fill="#cbeaff"/><path d="m124.976562 293.195312s24.738282-36.433593 74.4375-45.667968c43.480469-8.078125 53.125-4.984375 66.296876-10.828125 13.167968-5.84375 22.421874-17.46875 22.421874-17.46875v109.519531s-17.066406 19.480469-52.011718 24.472656c-34.542969 4.933594-45.414063 3.289063-80.835938 26.886719-15.648437 10.425781-30.308594 28.269531-30.308594 28.269531zm0 0" fill="#cbeaff"/><g fill="#33aeff"><path d="m160.929688 313.953125 9.277343 21.851563 9.28125-32.566407 9.976563-5.761719v46.636719l-8.082032 4.664063-.046874-29.507813-8.132813 29.578125-5.988281 3.457032-8.132813-20.1875v29.539062l-8.132812 4.695312v-46.636718zm0 0"/><path d="m205.386719 288.285156v46.636719l-9.128907 5.269531v-46.636718zm0 0"/><path d="m221.300781 279.09375v36.257812l14.820313-8.554687v10.378906l-23.949219 13.828125v-46.636718zm0 0"/><path d="m262.964844 301.675781-9.078125-12.785156-4.492188 9.246094v11.375l-9.128906 5.273437v-46.636718l9.128906-5.269532v19.558594l13.121094-27.136719 10.578125-6.105469-12.972656 26.78125 13.769531 19.394532zm0 0"/></g><path d="m4.660156 181.664062 112.273438 64.820313-46.769532-76.265625-5.597656-51.625-8.867187 43.273438zm0 0" fill="#2683bf"/></svg>