<?xml version="1.0" encoding="iso-8859-1"?>
<!-- Generator: Adobe Illustrator 19.0.0, SVG Export Plug-In . SVG Version: 6.00 Build 0)  -->
<svg version="1.1" id="Capa_1" xmlns="http://www.w3.org/2000/svg" xmlns:xlink="http://www.w3.org/1999/xlink" x="0px" y="0px"
	 viewBox="0 0 469.333 469.333" style="enable-background:new 0 0 469.333 469.333;" xml:space="preserve">
<path style="fill:#303C42;" d="M399.335,308.159c3.401-8.793,5.999-19.078,5.999-30.827c0-29.521-16.76-64-64-64
	c-34.329,0-51.961,18.089-59.423,34.823c-27.895-8.789-54.555-13.49-79.243-13.49c-66.348,0-115.424,38.991-140.715,83.453
	c-14.409-3.819-40.618-19.829-40.618-51.453c0-31.5,21.938-52.302,47.333-76.396C96.479,163.895,128,134.009,128,85.332
	c0-58.073-61.927-81.156-94.677-85.25c-5.865-0.719-11.167,3.406-11.896,9.25c-0.74,5.833,3.396,11.167,9.239,11.917
	c3.094,0.396,76,10.344,76,64.083c0,39.51-25.583,63.771-52.677,89.458C27.448,199.968,0,225.989,0,266.666
	c0,39.281,28.954,63.074,52.565,70.772c-6.422,15.914-9.898,31.917-9.898,46.561c0,62.167,71.969,85.333,117.333,85.333h170.667
	c57.583,0,138.667-23.167,138.667-74.667C469.333,368.485,434.379,333.821,399.335,308.159z"/>
<path style="fill:#8D6E63;" d="M330.667,447.999H160c-39.865,0-96-19.854-96-64c0-14.268,4.486-32.022,13.415-49.719
	c0.094-0.197,0.208-0.371,0.289-0.576c19.938-39.083,61.62-77.706,124.962-77.706c23.052,0,48.194,4.54,74.693,13.069
	c0.118,21.452,1.973,46.69,13.766,58.473c4.167,4.167,10.917,4.167,15.083,0c4.167-4.167,4.167-10.917,0-15.083
	c-2.271-2.271-7.542-11.271-7.542-45.792c0-0.323,2.51-32,42.667-32c38.51,0,42.667,29.833,42.667,42.667
	c0,26.948-18.063,45.635-18.208,45.792c-4.167,4.167-4.167,10.917,0,15.083c2.083,2.083,4.813,3.125,7.542,3.125
	s5.458-1.042,7.542-3.125c0.385-0.385,4.124-4.24,8.555-10.811c37.969,28.339,58.57,55.27,58.57,67.27
	C448,426.093,386.167,447.999,330.667,447.999z"/>
<path style="opacity:0.1;enable-background:new    ;" d="M403.632,338.615C411.635,348.789,416,357.282,416,362.666
	c0,31.427-61.833,53.333-117.333,53.333H128c-19.102,0-41.892-4.616-60.499-14.22c12.706,31.691,58.471,46.22,92.499,46.22h170.667
	c55.5,0,117.333-21.906,117.333-53.333C448,384.266,432.474,362.641,403.632,338.615z"/>
<circle style="fill:#303C42;" cx="384" cy="384" r="21.333"/>
<linearGradient id="SVGID_1_" gradientUnits="userSpaceOnUse" x1="-69.5529" y1="616.2208" x2="-45.1807" y2="604.8557" gradientTransform="matrix(21.3333 0 0 -21.3333 1430.1112 13315.2227)">
	<stop  offset="0" style="stop-color:#FFFFFF;stop-opacity:0.2"/>
	<stop  offset="1" style="stop-color:#FFFFFF;stop-opacity:0"/>
</linearGradient>
<path style="fill:url(#SVGID_1_);" d="M399.335,308.159c3.401-8.793,5.999-19.078,5.999-30.827c0-29.521-16.76-64-64-64
	c-34.329,0-51.961,18.089-59.423,34.823c-27.895-8.789-54.555-13.49-79.243-13.49c-66.348,0-115.424,38.991-140.715,83.453
	c-14.409-3.819-40.618-19.829-40.618-51.453c0-31.5,21.938-52.302,47.333-76.396C96.479,163.895,128,134.009,128,85.332
	c0-58.073-61.927-81.156-94.677-85.25c-5.865-0.719-11.167,3.406-11.896,9.25c-0.74,5.833,3.396,11.167,9.239,11.917
	c3.094,0.396,76,10.344,76,64.083c0,39.51-25.583,63.771-52.677,89.458C27.448,199.968,0,225.989,0,266.666
	c0,39.281,28.954,63.074,52.565,70.772c-6.422,15.914-9.898,31.917-9.898,46.561c0,62.167,71.969,85.333,117.333,85.333h170.667
	c57.583,0,138.667-23.167,138.667-74.667C469.333,368.485,434.379,333.821,399.335,308.159z"/>
<g>
</g>
<g>
</g>
<g>
</g>
<g>
</g>
<g>
</g>
<g>
</g>
<g>
</g>
<g>
</g>
<g>
</g>
<g>
</g>
<g>
</g>
<g>
</g>
<g>
</g>
<g>
</g>
<g>
</g>
</svg>
